Coordinates
version=1
nRows=8
nColumns=40
inDegrees=yes

Units are S.I. units (second, meters, Newtons, ...)
Angles are in degrees.

endheader
time	pelvis_tilt	pelvis_list	pelvis_rotation	pelvis_tx	pelvis_ty	pelvis_tz	hip_flexion_r	hip_adduction_r	hip_rotation_r	knee_angle_r	knee_angle_r_beta	ankle_angle_r	subtalar_angle_r	mtp_angle_r	hip_flexion_l	hip_adduction_l	hip_rotation_l	knee_angle_l	knee_angle_l_beta	ankle_angle_l	subtalar_angle_l	mtp_angle_l	lumbar_extension	lumbar_bending	lumbar_rotation	arm_flex_r	arm_add_r	arm_rot_r	elbow_flex_r	pro_sup_r	wrist_flex_r	wrist_dev_r	arm_flex_l	arm_add_l	arm_rot_l	elbow_flex_l	pro_sup_l	wrist_flex_l	wrist_dev_l
     17.16442857	     -4.95521492	     -6.05376671	     -8.88932043	      0.96148373	      0.91959679	      0.42247773	     28.62815186	     -2.79304888	      5.36273588	     60.97226152	     60.97226152	      4.15606426	     -4.46093134	     -3.88163917	     20.08057905	     -7.65007385	     -6.60381520	     32.28182905	     32.28182905	     18.76927875	    -17.29590335	      8.00279389	    -11.04196415	      7.46675501	      2.17358184	     -5.87691426	    -13.66815364	     -4.55057059	     23.17996969	     46.64925857	      0.00000000	      0.00000000	     31.52818189	    -17.77500429	     -3.21487872	     54.64898855	     47.65736198	      0.00000000	      0.00000000
     17.18635714	     -5.17432421	     -6.14687956	     -9.49418217	      0.95995356	      0.92135754	      0.42260184	     29.38313087	     -2.39140124	      5.27744279	     59.03168972	     59.03168972	      4.43244942	     -4.74982187	     -5.29541394	     19.43529177	     -7.87274012	     -7.31962535	     31.28341658	     31.28341658	     18.42126254	    -17.08639168	      7.39158125	    -11.15198809	      7.54535804	      2.02120684	     -9.14877706	    -13.65639669	     -5.18702335	     24.18378639	     46.61801381	      0.00000000	      0.00000000	     31.90008084	    -18.29098461	     -5.86214799	     58.75610396	     47.88454952	      0.00000000	      0.00000000
     17.20828571	     -5.46337219	     -6.17784808	    -10.12076042	      0.95849396	      0.92372692	      0.42316517	     29.80925135	     -2.07321717	      5.07037561	     55.98053503	     55.98053503	      4.67161651	     -4.77874938	     -7.43144269	     18.62822289	     -8.02187465	     -8.10084385	     29.84107026	     29.84107026	     17.90143535	    -16.82447683	      6.92269638	    -11.10260595	      7.56448953	      2.00610405	    -12.03007921	    -13.54208439	     -5.53373072	     24.67427347	     46.58701683	      0.00000000	      0.00000000	     32.60657042	    -18.84427502	     -7.56313211	     61.79862907	     48.01912929	      0.00000000	      0.00000000
     17.23021429	     -5.79065890	     -6.18869858	    -10.76474115	      0.95712772	      0.92647348	      0.42414644	     29.86437642	     -1.83390307	      4.67228103	     51.91879240	     51.91879240	      4.92989143	     -4.28061973	     -9.61117232	     17.69086673	     -8.13062090	     -8.90342618	     28.09246494	     28.09246494	     17.27646757	    -16.53828939	      6.54905363	    -10.99441151	      7.55581300	      2.05027912	    -14.67014028	    -13.38831812	     -5.83686880	     25.39254924	     46.54147520	      0.00000000	      0.00000000	     33.29232959	    -19.46648521	     -8.93005890	     64.77885291	     48.12423314	      0.00000000	      0.00000000
     17.25214286	     -6.11736809	     -6.17884501	    -11.41529689	      0.95587202	      0.92939407	      0.42557964	     29.56823177	     -1.64257787	      4.12123735	     47.12271357	     47.12271357	      5.63075540	     -2.83955516	    -10.06192743	     16.65692790	     -8.21401373	     -9.74551827	     26.19665689	     26.19665689	     16.82137245	    -16.07368468	      6.72644210	    -10.81313790	      7.50610599	      2.26182015	    -16.82712461	    -13.13709069	     -5.93891588	     25.40831395	     46.52162439	      0.00000000	      0.00000000	     34.37832297	    -20.06333730	     -9.64828089	     66.81948913	     48.20008309	      0.00000000	      0.00000000
     17.27407143	     -6.49687229	     -6.22741556	    -12.02390632	      0.95469319	      0.93201081	      0.42740664	     28.89083722	     -1.39439012	      3.36233239	     41.57936730	     41.57936730	      5.97064133	     -1.01210429	    -10.66255056	     15.69516257	     -8.36496036	    -10.51047597	     24.31438253	     24.31438253	     16.04650124	    -15.73509693	      6.22766555	    -10.63299519	      7.54378100	      2.20317396	    -18.99595944	    -12.99142381	     -6.38073895	     27.09202058	     46.44486630	      0.00000000	      0.00000000	     34.70737511	    -20.85336322	    -11.05547626	     70.27627250	     48.32351421	      0.00000000	      0.00000000
     17.29600000	     -6.90471086	     -6.28297088	    -12.56619674	      0.95367069	      0.93426191	      0.42965745	     27.89653802	     -1.02957542	      2.65702447	     35.63172908	     35.63172908	      6.25429012	      1.01894361	     -9.74261228	     14.84328710	     -8.53969418	    -11.19348527	     22.61890817	     22.61890817	     15.67741681	    -15.22711241	      6.51658301	    -10.25387429	      7.58861755	      2.36097911	    -20.36674406	    -12.73442095	     -6.39526510	     26.99443922	     46.43380924	      0.00000000	      0.00000000	     35.83700415	    -21.51644021	    -11.44494141	     71.55759986	     48.37680678	      0.00000000	      0.00000000
     17.31792857	     -7.08538533	     -6.15900333	    -13.06560364	      0.95296168	      0.93596959	      0.43206339	     26.65844888	     -1.03946159	      1.50374838	     29.98058842	     29.98058842	      6.99070132	      4.69948537	     -6.86293293	     13.76374491	     -8.45933518	    -11.94100011	     20.89370448	     20.89370448	     14.93877700	    -14.90305656	      5.76725928	    -10.18644869	      7.36262825	      2.36148366	    -21.98775075	    -12.51977482	     -6.73172030	     28.94392483	     46.34158999	      0.00000000	      0.00000000	     36.23703662	    -22.13876994	    -12.53609392	     75.15410199	     48.49302951	      0.00000000	      0.00000000
